<svg width="512" height="512" viewBox="0 0 512 512" fill="none" xmlns="http://www.w3.org/2000/svg" xmlns:xlink="http://www.w3.org/1999/xlink" class=""><rect id="«r9»" width="512" height="512" x="0" y="0" rx="128" fill="url(#«ra»)" stroke="#FFFFFF" stroke-width="0" stroke-opacity="100%" paint-order="stroke"></rect><clipPath id="clip"><use xlink:href="#«r9»"></use></clipPath><defs><radialGradient id="«ra»" cx="50%" cy="50%" r="100%" fx="50%" fy="50%" gradientUnits="objectBoundingBox"><stop stop-color="#40314E"></stop><stop offset="0.8" stop-color="#0F1015"></stop></radialGradient><radialGradient id="«rb»" cx="0" cy="0" r="1" gradientUnits="userSpaceOnUse" gradientTransform="translate(256) rotate(90) scale(512)"><stop stop-color="white"></stop><stop offset="1" stop-color="white" stop-opacity="0"></stop></radialGradient></defs><svg width="355" height="355" viewBox="0 0 131 131" fill="none" xmlns="http://www.w3.org/2000/svg" x="78.5" y="78.5" style="color: rgb(255, 255, 255);" alignment-baseline="middle">
<path d="M65.5001 130.515C29.6525 130.515 0.484863 101.353 0.484863 65.5001C0.484863 29.6472 29.6525 0.484863 65.5001 0.484863C101.348 0.484863 130.515 29.6472 130.515 65.5001C130.515 101.353 101.348 130.515 65.5001 130.515ZM65.5001 5.70361C32.528 5.70361 5.70361 32.528 5.70361 65.5001C5.70361 98.4721 32.528 125.296 65.5001 125.296C98.4721 125.296 125.296 98.4773 125.296 65.5001C125.296 32.5228 98.4721 5.70361 65.5001 5.70361Z" fill="white"></path>
<path d="M42.4491 113.434C42.1307 113.434 41.8124 113.372 41.4992 113.247C41.2853 113.163 41.0139 113.017 40.8312 112.881C23.2127 103.936 12.0342 85.6759 12.0342 65.4637C12.0342 57.0302 13.9808 48.9046 17.8218 41.327C18.4846 40.0379 20.0606 39.5422 21.3288 40.1736C22.6178 40.826 23.1345 42.3968 22.4821 43.6806C19.0116 50.5276 17.2529 57.8547 17.2529 65.4637C17.2529 83.7032 27.3408 100.184 43.5815 108.466C44.8184 109.098 45.382 110.616 44.8027 111.884C44.3696 112.85 43.4354 113.434 42.4491 113.434ZM110.809 91.1765C110.408 91.1765 110.006 91.0825 109.625 90.8894C108.341 90.2371 107.824 88.6663 108.482 87.3824C111.973 80.5302 113.742 73.177 113.742 65.5367C113.742 47.292 103.655 30.8112 87.4138 22.529L89.7309 17.853L88.4628 20.1388L89.7518 17.8687C107.783 27.0641 118.961 45.3245 118.961 65.542C118.961 74.012 116.999 82.1585 113.132 89.7517C112.673 90.6598 111.754 91.1765 110.809 91.1765Z" fill="white"></path>
<path d="M65.5002 44.4321C53.8624 44.4321 44.4321 53.8676 44.4321 65.5002C44.4321 77.138 53.8676 86.5683 65.5002 86.5683C77.1328 86.5683 86.5683 77.138 86.5683 65.5002C86.5683 53.8624 77.138 44.4321 65.5002 44.4321ZM65.5002 69.216C63.4493 69.216 61.7845 67.5512 61.7845 65.5002C61.7845 63.4493 63.4493 61.7845 65.5002 61.7845C67.5512 61.7845 69.216 63.4493 69.216 65.5002C69.216 67.5512 67.5512 69.216 65.5002 69.216Z" fill="white"></path>
</svg>
</svg>